<svg width="449" height="590" viewBox="0 0 449 590" fill="none" xmlns="http://www.w3.org/2000/svg">
<g filter="url(#filter0_d_593_482)">
<rect x="19" width="313" height="535" rx="20" fill="white"/>
</g>
<path d="M36.192 21.992H38.16L42.384 33.992L47.4 21.176L52.152 33.992L56.832 21.992H58.8L52.08 38.84L47.376 26.024L42.336 38.84L36.192 21.992ZM65.0318 34.664L66.4718 35.456C66.1838 36.008 65.7518 36.608 65.2478 37.064C64.3358 37.88 63.2078 38.288 61.9358 38.288C59.5358 38.288 57.0158 36.776 57.0158 33.08C57.0158 30.104 58.8398 27.8 61.8398 27.8C63.7838 27.8 65.0078 28.76 65.6078 29.624C66.2318 30.512 66.5918 32.048 66.5438 33.368H58.7918C58.8158 35.432 60.2318 36.752 61.9598 36.752C62.7758 36.752 63.4238 36.512 63.9998 36.032C64.4558 35.648 64.8158 35.144 65.0318 34.664ZM58.9118 31.928H64.7678C64.4798 30.368 63.3038 29.336 61.8398 29.336C60.3758 29.336 59.1758 30.44 58.9118 31.928ZM77.0665 29.456V28.04H78.7945V38H77.0665V36.608C76.4905 37.352 75.4105 38.288 73.6585 38.288C71.1385 38.288 68.8105 36.512 68.8105 33.008C68.8105 29.576 71.1145 27.8 73.6585 27.8C75.5785 27.8 76.6105 28.856 77.0665 29.456ZM73.8505 29.336C72.1465 29.336 70.5865 30.584 70.5865 33.008C70.5865 35.144 71.7865 36.752 73.8505 36.752C75.9625 36.752 77.1625 35 77.1625 33.032C77.1625 30.464 75.3865 29.336 73.8505 29.336ZM80.8673 28.04H82.7873L85.7633 34.76L88.7393 28.04H90.6593L85.7633 38.648L80.8673 28.04ZM100.111 34.664L101.551 35.456C101.263 36.008 100.831 36.608 100.327 37.064C99.4152 37.88 98.2872 38.288 97.0152 38.288C94.6152 38.288 92.0952 36.776 92.0952 33.08C92.0952 30.104 93.9192 27.8 96.9192 27.8C98.8632 27.8 100.087 28.76 100.687 29.624C101.311 30.512 101.671 32.048 101.623 33.368H93.8712C93.8952 35.432 95.3112 36.752 97.0392 36.752C97.8552 36.752 98.5032 36.512 99.0792 36.032C99.5352 35.648 99.8952 35.144 100.111 34.664ZM93.9912 31.928H99.8472C99.5592 30.368 98.3832 29.336 96.9192 29.336C95.4552 29.336 94.2552 30.44 93.9912 31.928Z" fill="black"/>
<line x1="19" y1="53.8" x2="332" y2="53.8" stroke="#898989" stroke-width="0.4"/>
<path d="M256.24 27.06H253V39H251.52V27.06H248.28V25.66H256.24V27.06ZM260.276 39.24C257.756 39.24 255.876 37.4 255.876 34.88C255.876 32.36 257.736 30.5 260.276 30.5C262.816 30.5 264.676 32.36 264.676 34.88C264.676 37.4 262.796 39.24 260.276 39.24ZM260.276 31.78C258.756 31.78 257.356 32.86 257.356 34.88C257.356 36.92 258.796 37.96 260.276 37.96C261.776 37.96 263.196 36.9 263.196 34.88C263.196 32.84 261.796 31.78 260.276 31.78ZM267.084 24.42H268.524V33.78L271.564 30.7H273.444L269.884 34.26L274.084 39H272.204L268.884 35.22L268.524 35.58V39H267.084V24.42ZM275.702 43.6L278.342 38.22L274.522 30.7H276.162L279.102 36.64L281.802 30.7H283.402L277.302 43.6H275.702ZM289.001 39.24C286.481 39.24 284.601 37.4 284.601 34.88C284.601 32.36 286.461 30.5 289.001 30.5C291.541 30.5 293.401 32.36 293.401 34.88C293.401 37.4 291.521 39.24 289.001 39.24ZM289.001 31.78C287.481 31.78 286.081 32.86 286.081 34.88C286.081 36.92 287.521 37.96 289.001 37.96C290.501 37.96 291.921 36.9 291.921 34.88C291.921 32.84 290.521 31.78 289.001 31.78ZM294.649 41.66L296.289 37.04L297.609 37.52L295.589 42.04L294.649 41.66ZM302.12 25.66H303.6V35.26C303.6 36.34 303.58 37.56 302.78 38.4C302.32 38.9 301.64 39.24 300.66 39.24C299.7 39.24 298.88 38.94 298.28 38.26L299.1 37.1C299.54 37.58 300.12 37.84 300.62 37.84C301.02 37.84 301.38 37.7 301.62 37.46C302.12 36.96 302.12 36.12 302.12 35.3V25.66ZM307.233 25.66H309.653C310.993 25.66 312.113 25.82 313.013 26.6C313.993 27.44 314.233 28.62 314.233 29.46C314.233 31.34 313.053 33.2 310.013 33.2H308.713V39H307.233V25.66ZM308.713 27.06V31.8H309.933C311.693 31.8 312.753 30.92 312.753 29.38C312.753 27.26 310.773 27.06 309.813 27.06H308.713Z" fill="black"/>
<defs>
<filter id="filter0_d_593_482" x="0" y="0" width="367" height="590" filterUnits="userSpaceOnUse" color-interpolation-filters="sRGB">
<feFlood flood-opacity="0" result="BackgroundImageFix"/>
<feColorMatrix in="SourceAlpha" type="matrix" values="0 0 0 0 0 0 0 0 0 0 0 0 0 0 0 0 0 0 127 0" result="hardAlpha"/>
<feOffset dx="8" dy="28"/>
<feGaussianBlur stdDeviation="13.5"/>
<feComposite in2="hardAlpha" operator="out"/>
<feColorMatrix type="matrix" values="0 0 0 0 0 0 0 0 0 0 0 0 0 0 0 0 0 0 0.25 0"/>
<feBlend mode="normal" in2="BackgroundImageFix" result="effect1_dropShadow_593_482"/>
<feBlend mode="normal" in="SourceGraphic" in2="effect1_dropShadow_593_482" result="shape"/>
</filter>
</defs>
</svg>
