<svg width="25" height="25" viewBox="0 0 25 25" fill="none" xmlns="http://www.w3.org/2000/svg">
<circle cx="12.5" cy="12.5" r="12.5" fill="#F4F4F5"/>
<path d="M14.8284 18.6275C14.3178 18.6275 13.8837 18.4487 13.5263 18.0913C13.1689 17.7339 12.9901 17.2998 12.9901 16.7892C12.9901 16.728 13.0055 16.585 13.0361 16.3603L8.73157 13.848C8.56817 14.0012 8.37924 14.1212 8.16478 14.208C7.95032 14.2948 7.72054 14.3382 7.47544 14.3382C6.96482 14.3382 6.53079 14.1595 6.17336 13.8021C5.81592 13.4447 5.63721 13.0106 5.63721 12.5C5.63721 11.9894 5.81592 11.5554 6.17336 11.1979C6.53079 10.8405 6.96482 10.6618 7.47544 10.6618C7.72054 10.6618 7.95032 10.7052 8.16478 10.792C8.37924 10.8788 8.56817 10.9988 8.73157 11.152L13.0361 8.63972C13.0157 8.56823 13.0029 8.49929 12.9978 8.43291C12.9927 8.36653 12.9901 8.29249 12.9901 8.21079C12.9901 7.70017 13.1689 7.26615 13.5263 6.90871C13.8837 6.55128 14.3178 6.37256 14.8284 6.37256C15.339 6.37256 15.773 6.55128 16.1305 6.90871C16.4879 7.26615 16.6666 7.70017 16.6666 8.21079C16.6666 8.72141 16.4879 9.15544 16.1305 9.51288C15.773 9.87031 15.339 10.049 14.8284 10.049C14.5833 10.049 14.3535 10.0056 14.139 9.91882C13.9246 9.83202 13.7357 9.71202 13.5723 9.55883L9.26772 12.0711C9.28815 12.1426 9.30091 12.2115 9.30602 12.2779C9.31112 12.3443 9.31368 12.4183 9.31368 12.5C9.31368 12.5817 9.31112 12.6557 9.30602 12.7221C9.30091 12.7885 9.28815 12.8574 9.26772 12.9289L13.5723 15.4412C13.7357 15.288 13.9246 15.168 14.139 15.0812C14.3535 14.9944 14.5833 14.951 14.8284 14.951C15.339 14.951 15.773 15.1297 16.1305 15.4871C16.4879 15.8446 16.6666 16.2786 16.6666 16.7892C16.6666 17.2998 16.4879 17.7339 16.1305 18.0913C15.773 18.4487 15.339 18.6275 14.8284 18.6275Z" fill="#1D1B20"/>
</svg>
